<svg xmlns="http://www.w3.org/2000/svg" viewBox="0 0 360 284" role="img" aria-label="Skyie Studio mark">
  <title>Skyie Studio</title>
  <g fill="currentColor">
    <circle cx="20" cy="42" r="6"/><circle cx="20" cy="82" r="6"/><circle cx="20" cy="122" r="6"/><circle cx="20" cy="162" r="6"/><circle cx="20" cy="202" r="6"/><circle cx="20" cy="242" r="6"/>
    <circle cx="60" cy="57.5" r="6"/><circle cx="60" cy="97.5" r="6"/><circle cx="60" cy="137.5" r="6"/><circle cx="60" cy="177.5" r="6"/><circle cx="60" cy="217.5" r="6"/><circle cx="60" cy="257.5" r="6"/>
    <circle cx="100" cy="64" r="6"/><circle cx="100" cy="104" r="6"/><circle cx="100" cy="144" r="6"/><circle cx="100" cy="184" r="6"/><circle cx="100" cy="224" r="6"/><circle cx="100" cy="264" r="6"/>
    <circle cx="140" cy="57.5" r="6"/><circle cx="140" cy="97.5" r="6"/><circle cx="140" cy="137.5" r="6"/><circle cx="140" cy="177.5" r="6"/><circle cx="140" cy="217.5" r="6"/><circle cx="140" cy="257.5" r="6"/>
    <circle cx="180" cy="42" r="6"/><circle cx="180" cy="82" r="6"/><circle cx="180" cy="122" r="6"/><circle cx="180" cy="162" r="6"/><circle cx="180" cy="202" r="6"/><circle cx="180" cy="242" r="6"/>
    <circle cx="220" cy="26.5" r="6"/><circle cx="220" cy="66.5" r="6"/><circle cx="220" cy="106.5" r="6"/><circle cx="220" cy="146.5" r="6"/><circle cx="220" cy="186.5" r="6"/><circle cx="220" cy="226.5" r="6"/>
    <circle cx="260" cy="20" r="6"/><circle cx="260" cy="60" r="6"/><circle cx="260" cy="100" r="6"/><circle cx="260" cy="140" r="6"/><circle cx="260" cy="180" r="6"/><circle cx="260" cy="220" r="6"/>
    <circle cx="300" cy="26.5" r="6"/><circle cx="300" cy="66.5" r="6"/><circle cx="300" cy="106.5" r="6"/><circle cx="300" cy="146.5" r="6"/><circle cx="300" cy="186.5" r="6"/><circle cx="300" cy="226.5" r="6"/>
    <circle cx="340" cy="42" r="6"/><circle cx="340" cy="82" r="6"/><circle cx="340" cy="122" r="6"/><circle cx="340" cy="162" r="6"/><circle cx="340" cy="202" r="6"/><circle cx="340" cy="242" r="6"/>
  </g>
</svg>
